<svg width="12" height="12" viewBox="0 0 12 12" fill="none" xmlns="http://www.w3.org/2000/svg">
<g clip-path="url(#clip0_237_434)">
<path d="M8.75169 0H3.24828C1.45715 0 0 1.45715 0 3.24828V8.75178C0 10.5428 1.45715 12 3.24828 12H8.75178C10.5428 12 12 10.5428 12 8.75178V3.24828C12 1.45715 10.5428 0 8.75169 0V0ZM11.2965 8.75178C11.2965 10.1549 10.1549 11.2965 8.75169 11.2965H3.24828C1.84506 11.2965 0.70349 10.1549 0.70349 8.75178V3.24828C0.70349 1.84506 1.84506 0.70349 3.24828 0.70349H8.75178C10.1549 0.70349 11.2965 1.84506 11.2965 3.24828V8.75178Z" fill="black"/>
<path d="M5.9999 2.71875C4.19064 2.71875 2.71875 4.19064 2.71875 5.9999C2.71875 7.80916 4.19064 9.28105 5.9999 9.28105C7.80916 9.28105 9.28105 7.80916 9.28105 5.9999C9.28105 4.19064 7.80916 2.71875 5.9999 2.71875ZM5.9999 8.57756C4.57864 8.57756 3.42224 7.42126 3.42224 5.9999C3.42224 4.57864 4.57864 3.42224 5.9999 3.42224C7.42126 3.42224 8.57757 4.57864 8.57757 5.9999C8.57757 7.42126 7.42126 8.57756 5.9999 8.57756Z" fill="black"/>
<path d="M9.35968 1.55347C8.82501 1.55347 8.39014 1.98843 8.39014 2.52301C8.39014 3.05768 8.82501 3.49264 9.35968 3.49264C9.89434 3.49264 10.3293 3.05768 10.3293 2.52301C10.3293 1.98834 9.89434 1.55347 9.35968 1.55347ZM9.35968 2.78906C9.21301 2.78906 9.09363 2.66968 9.09363 2.52301C9.09363 2.37625 9.21301 2.25696 9.35968 2.25696C9.50644 2.25696 9.62582 2.37625 9.62582 2.52301C9.62582 2.66968 9.50644 2.78906 9.35968 2.78906Z" fill="black"/>
</g>
<defs>
<clipPath id="clip0_237_434">
<rect width="12" height="12" fill="white"/>
</clipPath>
</defs>
</svg>
