<svg width="12" height="12" viewBox="0 0 12 12" fill="none" xmlns="http://www.w3.org/2000/svg">
<g clip-path="url(#clip0_237_431)">
<path d="M0.211955 5.78566L2.977 6.81766L4.04724 10.2595C4.11572 10.48 4.38528 10.5615 4.5642 10.4152L6.10548 9.1587C6.26704 9.02706 6.49716 9.0205 6.666 9.14306L9.44592 11.1613C9.63732 11.3005 9.90848 11.1956 9.95648 10.9643L11.9929 1.16866C12.0453 0.916017 11.7971 0.705257 11.5565 0.798297L0.208715 5.17594C-0.0713246 5.28394 -0.0688846 5.68042 0.211955 5.78566ZM3.87476 6.2683L9.27868 2.94002C9.3758 2.88038 9.47572 3.0117 9.39232 3.08906L4.93252 7.23466C4.77576 7.38058 4.67464 7.57586 4.646 7.78782L4.49408 8.91366C4.47396 9.06398 4.2628 9.0789 4.22132 8.93342L3.63704 6.88042C3.57012 6.64626 3.66764 6.39614 3.87476 6.2683Z" fill="black"/>
</g>
<defs>
<clipPath id="clip0_237_431">
<rect width="12" height="12" fill="white"/>
</clipPath>
</defs>
</svg>
